<?xml version="1.0" encoding="UTF-8"?><svg id="uuid-fdf030d3-2523-4006-ab4c-b1f820b512e3" xmlns="http://www.w3.org/2000/svg" width="2871.2" height="642.4" viewBox="0 0 2871.2 642.4"><path d="m134.3,278.8c26.6,1.9,51.6,8.7,75.8,18.8,40.3,16.7,67.9,46,82.9,86.6,8.8,23.8,11.8,48.9,9.6,74.4-.7,8.2-1.2,16.6,2.6,24.4,5.8,11.8,15.4,19.6,26.9,25.6,5.9,3.1,12.1,5.1,18.6,6.6,1.3.3,2.9.2,3.8,2.3-3.9,1.2-7.8.8-11.5.2-19.9-3.3-38.9-9.3-57.4-17.1-19.3-8.2-36-20.4-51.9-33.8-23.1-19.5-40.1-44.1-57.1-68.6-9.5-13.8-20.4-26-35.5-33.9-2.5-1.3-5.1-2.3-7.8-3.1-8.8-2.8-14.8,1.4-16,10.5-1.6,12.5,1.5,23.9,7.2,34.8,17,33,42.7,57.5,74.2,76.5,32.7,19.7,68.3,31.5,105.3,39.3,11.2,2.4,22.3,5.4,33.7,7,4.7.7,9.4.9,14.5,1.4-1.2,2.8-3.6,3.1-5.7,3.7-22.7,6.2-45.9,8.3-69.4,8.3-17.4,0-34.8-1-51.9-3.6-43.7-6.5-84.4-20.9-120.9-46.2-35.1-24.4-61.3-56.4-79.2-95-12.6-27.1-19.9-55.8-23-85.6-2.8-26.5-1.9-52.9,1.4-79.2.4-3.1,0-6.4,2.1-9.4,3.2,1.5,4.3,4.6,5.9,7.1,10.1,16.3,25.2,25.9,42.8,32.1,20.3,7.2,41.4,10.8,62.6,13.4,5.8.7,11.7,1.6,17.9,2.4m-23.2,105c-.5-3-1.2-6.1-1.4-9.1-1.2-15.9,3.4-22.2,18.1-22.7-9.8-3.2-16.2-.2-20,9.2-2.5,6-2.1,12.2-1,18.2,4.3,22.9,15.2,42.9,27.6,62.2.7,1.2,1.5,2.9,4.3,1.4-11.9-18.2-22.2-37.2-27.6-59.1Z" fill="#7db64a"/><path d="m299.6,206.7c24.4,2.1,48.2,5.6,71.5,12.2,1.1.3,2.3.6,3.3.3,2.6-.6,5.1-2.1,5.5-4.6.5-2.9-2.8-2.6-4.6-3.1-17.1-4.5-34.5-7-52.1-8.8-31.3-3.2-62.6-4.7-94-3.9-25.9.6-51.8,2.3-77.5,5.4-21.3,2.5-42.5,5.7-63.4,10.6-9.5,2.2-19,5-28.2,8.3-4.5,1.6-8.8,2.1-13.6,1-10.8-2.5-21.5-5.2-31.5-10.2-1.5-.8-3-1.5-4.4-2.4-10.4-6.7-10.1-16.1.7-22.3,10.3-5.9,21.6-9.3,33.1-12,28.4-6.7,57.3-10.1,86.3-12.8,23.2-2.1,46.4-3.1,69.6-4.2,24.7-1.2,49.3-1.7,73.9-1.1,32.6.7,65.2,2.1,97.8,4.8,16.9,1.4,33.7,3.8,50.6,4.4,2.9.1,4.7-.7,6.4-2.9,9.9-12.7,19.5-25.6,29.8-38,9.3-11.1,19.8-21.4,29.2-32.4,13.3-15.5,28.9-28,45.9-39,9.9-6.4,20.7-10.6,32.7-10.7,16-.2,26,14.2,20.5,29.3-2.9,7.9-8.6,13.7-14.6,19.2-21.2,19.8-45.7,35.7-67,55.4-10.7,9.9-22,19.1-32.1,29.6-.9.9-1.8,1.8-2.7,2.6-5,4.2-5,5-.9,9.5,4.9,5.4,4.1,12.2-2,17.2-9.6,7.7-21.1,11.6-32.6,15.2-24.7,7.7-50.1,12-75.6,15.9-21.2,3.2-42.5,5.5-63.8,7.3-41.4,3.5-82.8,4.7-124.3,3-19.8-.8-39.4-2.7-58.9-6.1-12.9-2.2-25.2-6.3-36.2-13.9-1.1-.8-2.5-1.3-3-3.1,1.5-2,3.9-1.5,5.9-2.2,24.6-7.9,50.1-12,75.7-15.2,14.6-1.8,29.3-3,43.9-3.6,20.2-.9,40.3-1.7,60.5-.9,13.1.6,26.3.8,39.8,2.3m260.3-111c-1.2,1.1-2.7,1.9-3.9,4.3,11.2-8.2,20.2-17,25.1-29.4,1.1-2.8,1.2-5.7.3-8.6-.3-1.1-1.1-2.1-2.4-1.8-1.5.4-1.4,1.5-1,2.7,1.8,5.5-.4,10.2-3.1,14.7-3.9,6.7-9.4,12.2-15.1,18.2Z" fill="#7db64a"/><path d="m262.3,300.8c17.5-15,37.8-20.9,60.2-22,16-.8,31.9-.6,47.9-1.6,35.8-2.3,64.8-18,87.3-45.8,3.3-4,7.1-7.6,9.8-12.1,1.7-2.9,3.2-2,4.5.5,2,3.8,2.6,8,3.5,12.1,6.2,26.9,9.6,54,8.3,81.6-1.9,42.6-12.9,82.5-36.2,118.6-21.7,33.5-51.1,58-86.8,75.2-3.9,1.9-7.4,1-11-.1-11.6-3.8-22.2-9.3-31.3-17.6-3.7-3.4-3.5-4.2,1-6.3,35.2-16.2,65.5-38.7,88.9-70,10-13.4,17.5-28,20.9-44.5,1.7-8.4,1.4-16.7-.8-25-2-7.5-4.7-8.2-10.2-2.8-8,7.8-13.8,17.3-19.1,27-15.4,28-33,54.3-55.4,77.3-9,9.3-18.2,18.2-28.5,26-1.5,1.1-3,2.9-5.2,1.7-2.4-1.3-1.7-3.7-1.4-5.7,3.4-19.6,3.7-39.4,1.4-59.1-3.3-28.2-11.7-54.5-31.8-75.7-6.7-7.1-14.8-12.3-23.9-16-5.8-2.3-6-4.1-1.2-8,3-2.5,6-5.1,9.2-7.8m173.6,49.2c1.2,9.1-1.1,18.1-2.3,27.3,2.7-.4,3.1-1.6,3.4-2.8,1.9-8.1,1.9-16.3-.2-24.4,0-.2,0-1.4-.9,0Z" fill="#7db64a"/><path d="m106.6,139.3c-18.3.5-34.3-12.7-36.7-30.1-2.5-18.3,9.3-35.7,27.1-39.8,18-4.2,35.5,5.6,41.7,24.6,5.1,15.9-1.8,33.7-18.1,41.7-4.4,2.1-8.9,3.2-14,3.7Z" fill="#7db64a"/><path d="m397.7,74.6c-13.3-2.7-21.9-11.5-23.8-23.8-1.7-11.2,4.4-22.8,15-28.7,9.9-5.5,23.8-3.3,32.6,5.3,7.9,7.7,10.2,21.4,5.2,31.1-5.9,11.6-16,17.4-29,16.1Z" fill="#7db64a"/><path d="m208.8,9.2c9.8,14.6,2.8,28.2-5.8,33.8-10.5,6.9-24.1,4.6-31.5-5.1-7.8-10.2-6.3-23.6,3.5-32.4,8.5-7.7,22.6-7.2,31.4,1,.8.8,1.5,1.6,2.5,2.7m-4.2,17.1c-.2,1.3-.4,2.7-.6,4,1.3-2.5,2.3-5.1.7-7.8,0,1.1,0,2.2,0,3.9Z" fill="#7db64a"/><path d="m289,46.2c11.9,3.3,18.2,12.6,16.6,24-1.4,9.8-10.4,17.4-20.6,17.5-11.2.1-20.5-8.8-20.8-19.9-.4-11.4,8.3-21.2,19.4-21.8,1.7,0,3.4.1,5.4.2Z" fill="#7db64a"/><path d="m214.8,139.1c3.9-8.7,12-12,19.3-8.1,7.5,4,9.8,12.9,5.1,20.1-3,4.6-8.8,6.9-14.2,5.7-5.7-1.3-9.7-5.5-10.5-11.1-.3-2.1-.3-4.2.4-6.5Z" fill="#7db64a"/><path d="m341.7,135.5c-4.5-4.2-5.4-7.7-3.4-12.1,1.8-3.8,5.6-6,9.8-5.7,4.5.4,7,3.3,8.3,7.2,1.3,3.8,0,7.2-2.9,9.8-3.3,3.1-7.1,3.3-11.8.8Z" fill="#7db64a"/><path d="m799.4,420.6c-4,4.1-9.4,6.1-16.4,6.1s-12.5-2.1-16.4-6.1c-4-4.1-5.9-9.8-5.9-17.1v-172.9c0-7.4,2-13.2,5.9-17.3,3.9-4.1,9.4-6.1,16.4-6.1s12.5,2.1,16.4,6.1c3.9,4.1,5.9,9.9,5.9,17.3v66.4h96.3v-66.4c0-7.4,2-13.2,5.9-17.3,3.9-4.1,9.4-6.1,16.4-6.1s12.5,2.1,16.4,6.1c3.9,4.1,5.9,9.9,5.9,17.3v172.9c0,7.3-2,13-5.9,17.1-4,4.1-9.4,6.1-16.4,6.1s-12.5-2.1-16.4-6.1c-4-4.1-5.9-9.8-5.9-17.1v-69.6h-96.3v69.6c0,7.3-2,13-5.9,17.1Z" fill="#7db64a"/><path d="m1020.8,420.6c-4,4.1-9.4,6.1-16.4,6.1s-12.5-2.1-16.4-6.1c-4-4.1-5.9-9.8-5.9-17.1v-172.9c0-7.4,2-13.2,5.9-17.3,3.9-4.1,9.4-6.1,16.4-6.1s12.5,2.1,16.4,6.1c3.9,4.1,5.9,9.9,5.9,17.3v172.9c0,7.3-2,13-5.9,17.1Z" fill="#7db64a"/><path d="m1084.6,423.9c-7,0-12.5-2-16.4-6.1-4-4.1-5.9-9.9-5.9-17.3v-167.1c0-7.3,2-13,5.9-17.1,3.9-4.1,9.4-6.1,16.4-6.1h101.6c6.2,0,11.2,1.7,14.8,5,3.7,3.3,5.5,7.8,5.5,13.6s-1.9,10.2-5.6,13.6c-3.7,3.3-8.6,5-14.7,5h-79.3v51.4h75.4c5.6,0,10.1,1.6,13.6,4.7,3.4,3.1,5.1,7.3,5.1,12.5s-1.7,9.5-5.1,12.6c-3.4,3.1-7.9,4.6-13.6,4.6h-75.4v53.9h79.3c6.1,0,11,1.7,14.7,5,3.7,3.3,5.6,7.8,5.6,13.6s-1.8,10.2-5.5,13.6c-3.7,3.3-8.6,5-14.8,5h-101.6Z" fill="#7db64a"/><path d="m1275,420.9c-4,4.1-9.4,6.1-16.4,6.1s-12.5-2.1-16.4-6.1c-4-4.1-5.9-9.8-5.9-17.1v-170.4c0-7.3,2-13,5.9-17.1,3.9-4.1,9.4-6.1,16.4-6.1h65.2c24.4,0,43.4,6.1,57,18.1,13.6,12.1,20.4,28.8,20.4,50s-3.2,25.6-9.6,36.2c-6.4,10.6-15.5,18.4-27.1,23.3l30.8,53.3c3.2,5.4,4.7,10.6,4.7,15.4s-2.1,10.8-6.4,14.7c-4.2,3.9-9.6,5.8-16.1,5.8s-9.6-1.2-12.7-3.5-6.5-6.8-10.1-13.4l-35.6-64.4h-38.1v58.1c0,7.3-2,13-5.9,17.1Zm5.9-107.6h38.5c11.3,0,20-3,26.3-9,6.3-6,9.4-14.4,9.4-25s-3.3-18.6-9.8-24.8c-6.5-6.2-15.3-9.3-26.4-9.3h-38.1v68.1Z" fill="#7db64a"/><path d="m1513.2,426.7c-8.8,0-15.9-2.1-21.3-6.1-5.4-4.1-9.8-10.7-13-19.8l-59.6-159.8c-1.5-4.1-2.2-8.3-2.2-12.6,0-6.3,2.2-11.4,6.5-15.3,4.3-3.9,10-5.9,17-5.9,11.7,0,19.3,5.9,22.8,17.6l50.1,153h1l49.9-153.5c1.9-6,4.6-10.4,8.1-13.1,3.5-2.7,8.2-4.1,14-4.1s12.3,1.9,16.6,5.7c4.2,3.8,6.4,8.8,6.4,14.9s-.7,8-2.2,12l-59.8,161.2c-3.3,9-7.6,15.5-13,19.6-5.4,4.1-12.5,6.1-21.2,6.1Z" fill="#7db64a"/><path d="m1625.2,426.7c-6.9,0-12.4-1.9-16.5-5.7-4.1-3.8-6.1-8.9-6.1-15.3s1-8.6,3-14.2l58.4-159c3.2-8.7,7.5-15.1,12.9-19.2,5.4-4.1,12.3-6.1,20.7-6.1s15.8,2,21.3,6c5.5,4,9.8,10.4,13,19.2l58.7,159.1c1.9,5.2,2.8,10,2.8,14.2,0,6.1-2.1,11.2-6.3,15.1-4.2,3.9-9.6,5.9-16.1,5.9s-11.3-1.5-14.9-4.6c-3.6-3.1-6.4-8.1-8.4-15.1l-11.3-33.8h-77.2l-11.3,33.3c-2.1,7.1-4.9,12.2-8.4,15.4-3.6,3.2-8.3,4.7-14.2,4.7Zm43.7-88.1h57l-28.3-87.6h-1l-27.7,87.6Z" fill="#7db64a"/><path d="m1902.6,423.9c-7,0-12.5-2-16.4-6.1-4-4.1-5.9-9.9-5.9-17.3v-167.1c0-7.3,2-13,5.9-17.1,3.9-4.1,9.4-6.1,16.4-6.1h70.7c20,0,35.9,4.8,47.7,14.4,11.8,9.6,17.6,22.6,17.6,39s-3.8,21.9-11.5,30.7c-7.7,8.8-17.2,14-28.7,15.7v1.2c14.6,1.1,26.7,6.5,36.1,16.1,9.5,9.7,14.2,21.5,14.2,35.6s-6.6,33.8-19.9,44.7c-13.2,11-31.3,16.4-54.1,16.4h-72.3Zm22.4-124.9h32.1c11.9,0,21.2-2.5,27.7-7.5,6.5-5,9.8-12,9.8-21.1s-2.9-15.2-8.6-19.9c-5.7-4.7-13.8-7-24.3-7h-36.7v55.6Zm0,91.6h38.5c12.9,0,22.8-2.7,29.6-8.1,6.8-5.4,10.1-13.2,10.1-23.3s-3.5-17.6-10.4-22.8c-7-5.2-17.1-7.9-30.3-7.9h-37.5v62.1Z" fill="#7db64a"/><path d="m2164,427.4c-27.3,0-49-7.3-65.3-21.8-16.2-14.5-24.4-33.6-24.4-57.3v-117.8c0-7.4,2-13.2,5.9-17.3,3.9-4.1,9.4-6.1,16.4-6.1s12.5,2.1,16.4,6.1c3.9,4.1,5.9,9.9,5.9,17.3v113.3c0,13.9,3.9,25,11.8,33.1,7.9,8.1,18.9,12.2,33.1,12.2s25.1-4.1,33-12.2c7.9-8.1,11.8-19.2,11.8-33.1v-113.3c0-7.4,2-13.2,5.9-17.3,3.9-4.1,9.4-6.1,16.4-6.1s12.5,2.1,16.4,6.1c3.9,4.1,5.9,9.9,5.9,17.3v117.8c0,23.7-8.1,42.8-24.4,57.3-16.2,14.5-38,21.8-65.1,21.8Z" fill="#7db64a"/><path d="m2311.4,423.9c-7,0-12.5-2-16.4-6.1-4-4.1-5.9-9.9-5.9-17.3v-167.1c0-7.3,2-13,5.9-17.1,3.9-4.1,9.4-6.1,16.4-6.1h101.6c6.2,0,11.2,1.7,14.8,5,3.7,3.3,5.5,7.8,5.5,13.6s-1.9,10.2-5.6,13.6c-3.7,3.3-8.6,5-14.7,5h-79.3v51.4h75.4c5.6,0,10.1,1.6,13.6,4.7,3.4,3.1,5.1,7.3,5.1,12.5s-1.7,9.5-5.1,12.6c-3.4,3.1-7.9,4.6-13.6,4.6h-75.4v53.9h79.3c6.1,0,11,1.7,14.7,5,3.7,3.3,5.6,7.8,5.6,13.6s-1.8,10.2-5.5,13.6c-3.7,3.3-8.6,5-14.8,5h-101.6Z" fill="#7db64a"/><path d="m2500.1,420.9c-3.8,3.9-9,5.9-15.7,5.9s-12-2-15.8-5.9c-3.8-3.9-5.7-9.4-5.7-16.5v-174.8c0-7.1,2-12.6,5.9-16.5,3.9-3.9,9.5-5.9,16.6-5.9s8.5,1,11.9,3c3.4,2,6.8,5.4,10.3,10l92.4,129.2h1.2v-119.7c0-7.1,1.9-12.6,5.6-16.6,3.8-3.9,9-5.9,15.9-5.9s11.9,2,15.7,5.9c3.8,3.9,5.6,9.5,5.6,16.7v175.3c0,7-1.9,12.4-5.7,16.1-3.8,3.8-9.2,5.6-16.2,5.6s-8.9-1-12.3-2.9c-3.4-1.9-6.7-5.3-10.1-10l-92.7-129.9h-1.3v120.4c0,7.1-1.9,12.6-5.6,16.5Z" fill="#7db64a"/><path d="m2693.9,426.7c-6.9,0-12.4-1.9-16.5-5.7-4.1-3.8-6.1-8.9-6.1-15.3s1-8.6,3-14.2l58.4-159c3.2-8.7,7.5-15.1,12.9-19.2,5.4-4.1,12.3-6.1,20.7-6.1s15.8,2,21.3,6c5.5,4,9.8,10.4,13,19.2l58.7,159.1c1.9,5.2,2.8,10,2.8,14.2,0,6.1-2.1,11.2-6.3,15.1-4.2,3.9-9.6,5.9-16.1,5.9s-11.3-1.5-14.9-4.6c-3.6-3.1-6.4-8.1-8.4-15.1l-11.3-33.8h-77.2l-11.3,33.3c-2.1,7.1-4.9,12.2-8.4,15.4-3.6,3.2-8.3,4.7-14.2,4.7Zm43.7-88.1h57l-28.3-87.6h-1l-27.7,87.6Z" fill="#7db64a"/><g id="uuid-49165f7b-4009-4ee2-9524-e4ae0f5140f8"><line x1="643.6" y1="250.1" x2="643.6" y2="377.3" fill="none" stroke="#7db648" stroke-linecap="round" stroke-miterlimit="10" stroke-width="30"/></g></svg>